<mxfile host="app.diagrams.net" modified="2024-01-10T09:02:44.551Z" agent="Mozilla/5.0 (Windows NT 10.0; Win64; x64) AppleWebKit/537.36 (KHTML, like Gecko) Chrome/120.0.0.0 Safari/537.36" etag="0mtZfLUuv06kp_uWI_Hq" version="22.1.18" type="github">
  <diagram name="Page-1" id="MQoAxCMN1dyDrvUFQY02">
    <mxGraphModel dx="1434" dy="780" grid="1" gridSize="10" guides="1" tooltips="1" connect="1" arrows="1" fold="1" page="1" pageScale="1" pageWidth="827" pageHeight="1169" math="0" shadow="0">
      <root>
        <mxCell id="0" />
        <mxCell id="1" parent="0" />
        <mxCell id="Y9K2NSaydYY9bkMwLfk--1" value="Company" style="whiteSpace=wrap;html=1;align=center;" parent="1" vertex="1">
          <mxGeometry x="550" y="180" width="100" height="39" as="geometry" />
        </mxCell>
        <mxCell id="Y9K2NSaydYY9bkMwLfk--2" value="Providers" style="whiteSpace=wrap;html=1;align=center;" parent="1" vertex="1">
          <mxGeometry x="210" y="180" width="100" height="39" as="geometry" />
        </mxCell>
        <mxCell id="Y9K2NSaydYY9bkMwLfk--3" value="Has" style="shape=rhombus;perimeter=rhombusPerimeter;whiteSpace=wrap;html=1;align=center;" parent="1" vertex="1">
          <mxGeometry x="380" y="175" width="90" height="49" as="geometry" />
        </mxCell>
        <mxCell id="Y9K2NSaydYY9bkMwLfk--4" value="" style="endArrow=none;html=1;rounded=0;" parent="1" edge="1">
          <mxGeometry relative="1" as="geometry">
            <mxPoint x="470" y="200" as="sourcePoint" />
            <mxPoint x="550" y="199.5" as="targetPoint" />
          </mxGeometry>
        </mxCell>
        <mxCell id="Y9K2NSaydYY9bkMwLfk--5" value="" style="endArrow=none;html=1;rounded=0;" parent="1" edge="1">
          <mxGeometry relative="1" as="geometry">
            <mxPoint x="310" y="200" as="sourcePoint" />
            <mxPoint x="380" y="199.5" as="targetPoint" />
          </mxGeometry>
        </mxCell>
        <mxCell id="Y9K2NSaydYY9bkMwLfk--6" value="N" style="text;html=1;align=center;verticalAlign=middle;resizable=0;points=[];autosize=1;strokeColor=none;fillColor=none;" parent="1" vertex="1">
          <mxGeometry x="465" y="195" width="30" height="30" as="geometry" />
        </mxCell>
        <mxCell id="Y9K2NSaydYY9bkMwLfk--7" value="M" style="text;html=1;align=center;verticalAlign=middle;resizable=0;points=[];autosize=1;strokeColor=none;fillColor=none;" parent="1" vertex="1">
          <mxGeometry x="360" y="195" width="30" height="30" as="geometry" />
        </mxCell>
        <mxCell id="Y9K2NSaydYY9bkMwLfk--8" value="Products" style="whiteSpace=wrap;html=1;align=center;" parent="1" vertex="1">
          <mxGeometry x="550" y="355" width="100" height="39" as="geometry" />
        </mxCell>
        <mxCell id="Y9K2NSaydYY9bkMwLfk--9" value="Currency" style="whiteSpace=wrap;html=1;align=center;" parent="1" vertex="1">
          <mxGeometry x="375" y="275" width="100" height="39" as="geometry" />
        </mxCell>
        <mxCell id="Y9K2NSaydYY9bkMwLfk--11" value="" style="endArrow=none;html=1;rounded=0;exitX=0.5;exitY=1;exitDx=0;exitDy=0;entryX=0.5;entryY=0;entryDx=0;entryDy=0;" parent="1" source="Y9K2NSaydYY9bkMwLfk--3" target="Y9K2NSaydYY9bkMwLfk--9" edge="1">
          <mxGeometry relative="1" as="geometry">
            <mxPoint x="395" y="245.5" as="sourcePoint" />
            <mxPoint x="465" y="245" as="targetPoint" />
          </mxGeometry>
        </mxCell>
        <mxCell id="Y9K2NSaydYY9bkMwLfk--14" value="" style="endArrow=none;html=1;rounded=0;entryX=0.5;entryY=1;entryDx=0;entryDy=0;exitX=0.5;exitY=0;exitDx=0;exitDy=0;" parent="1" source="Y9K2NSaydYY9bkMwLfk--8" target="Y9K2NSaydYY9bkMwLfk--16" edge="1">
          <mxGeometry relative="1" as="geometry">
            <mxPoint x="574.5" y="335.5" as="sourcePoint" />
            <mxPoint x="615.5" y="335" as="targetPoint" />
          </mxGeometry>
        </mxCell>
        <mxCell id="Y9K2NSaydYY9bkMwLfk--15" value="N" style="text;html=1;align=center;verticalAlign=middle;resizable=0;points=[];autosize=1;strokeColor=none;fillColor=none;" parent="1" vertex="1">
          <mxGeometry x="399" y="245" width="30" height="30" as="geometry" />
        </mxCell>
        <mxCell id="Y9K2NSaydYY9bkMwLfk--16" value="Provide" style="shape=rhombus;perimeter=rhombusPerimeter;whiteSpace=wrap;html=1;align=center;" parent="1" vertex="1">
          <mxGeometry x="555" y="270" width="90" height="49" as="geometry" />
        </mxCell>
        <mxCell id="Y9K2NSaydYY9bkMwLfk--17" value="" style="endArrow=none;html=1;rounded=0;entryX=0.5;entryY=1;entryDx=0;entryDy=0;exitX=0.5;exitY=0;exitDx=0;exitDy=0;" parent="1" source="Y9K2NSaydYY9bkMwLfk--16" target="Y9K2NSaydYY9bkMwLfk--1" edge="1">
          <mxGeometry relative="1" as="geometry">
            <mxPoint x="540" y="235.5" as="sourcePoint" />
            <mxPoint x="610" y="235" as="targetPoint" />
          </mxGeometry>
        </mxCell>
        <mxCell id="Y9K2NSaydYY9bkMwLfk--19" value="M" style="text;html=1;align=center;verticalAlign=middle;resizable=0;points=[];autosize=1;strokeColor=none;fillColor=none;" parent="1" vertex="1">
          <mxGeometry x="600" y="315" width="30" height="30" as="geometry" />
        </mxCell>
        <mxCell id="Y9K2NSaydYY9bkMwLfk--20" value="1" style="text;html=1;align=center;verticalAlign=middle;resizable=0;points=[];autosize=1;strokeColor=none;fillColor=none;" parent="1" vertex="1">
          <mxGeometry x="600" y="240" width="30" height="30" as="geometry" />
        </mxCell>
        <mxCell id="Y9K2NSaydYY9bkMwLfk--21" value="Services" style="whiteSpace=wrap;html=1;align=center;" parent="1" vertex="1">
          <mxGeometry x="375" y="30" width="100" height="40" as="geometry" />
        </mxCell>
        <mxCell id="Y9K2NSaydYY9bkMwLfk--22" value="Provide" style="shape=rhombus;perimeter=rhombusPerimeter;whiteSpace=wrap;html=1;align=center;" parent="1" vertex="1">
          <mxGeometry x="380" y="100" width="90" height="50" as="geometry" />
        </mxCell>
        <mxCell id="Y9K2NSaydYY9bkMwLfk--24" value="" style="endArrow=none;html=1;rounded=0;entryX=0.5;entryY=0;entryDx=0;entryDy=0;edgeStyle=elbowEdgeStyle;elbow=vertical;exitX=1;exitY=0.5;exitDx=0;exitDy=0;" parent="1" source="Y9K2NSaydYY9bkMwLfk--22" target="Y9K2NSaydYY9bkMwLfk--1" edge="1">
          <mxGeometry relative="1" as="geometry">
            <mxPoint x="600" y="120" as="sourcePoint" />
            <mxPoint x="750" y="140" as="targetPoint" />
            <Array as="points">
              <mxPoint x="550" y="125" />
            </Array>
          </mxGeometry>
        </mxCell>
        <mxCell id="Y9K2NSaydYY9bkMwLfk--26" value="" style="endArrow=none;html=1;rounded=0;exitX=0.5;exitY=0;exitDx=0;exitDy=0;" parent="1" edge="1">
          <mxGeometry relative="1" as="geometry">
            <mxPoint x="530" y="91" as="sourcePoint" />
            <mxPoint x="530" y="60" as="targetPoint" />
          </mxGeometry>
        </mxCell>
      </root>
    </mxGraphModel>
  </diagram>
</mxfile>
